<svg xmlns="http://www.w3.org/2000/svg" viewBox="0 0 24 24" width="24" height="24" role="img" aria-label="Digital Trainer">
  <rect width="24" height="24" rx="5.5" fill="#7A1F2B"/>
  <g transform="translate(2.4 2.4) scale(0.8)" fill="none" stroke="#FAF6EE" stroke-width="2.5" stroke-linecap="round" stroke-linejoin="round">
    <path d="M17.596 12.768a2 2 0 1 0 2.829-2.829l-1.768-1.767a2 2 0 0 0 2.828-2.829l-2.828-2.828a2 2 0 0 0-2.829 2.828l-1.767-1.768a2 2 0 1 0-2.829 2.829z"/>
    <path d="m2.5 21.5 1.4-1.4"/>
    <path d="m20.1 3.9 1.4-1.4"/>
    <path d="M5.343 21.485a2 2 0 1 0 2.829-2.828l1.767 1.768a2 2 0 1 0 2.829-2.829l-6.364-6.364a2 2 0 1 0-2.829 2.829l1.768 1.767a2 2 0 0 0-2.828 2.829z"/>
    <path d="m9.6 14.4 4.8-4.8"/>
  </g>
</svg>
